{"title":"Mad Max:Fury Road(2015)MPEG-4[DaScubaDude]","uid":13361035,"size":1198319616,"categoryP":"video","categoryS":"movies","magnet":"?xt=urn:btih:6550767f90110fd463ba76368c46615089e91b3a&amp;dn=Mad+Max%3AFury+Road%282015%29MPEG-4%5BDaScubaDude%5D&amp;tr=udp%3A%2F%2Ftracker.leechers-paradise.org%3A6969&amp;tr=udp%3A%2F%2Fzer0day.ch%3A1337&amp;tr=udp%3A%2F%2Fopen.demonii.com%3A1337&amp;tr=udp%3A%2F%2Ftracker.coppersurfer.tk%3A6969&amp;tr=udp%3A%2F%2Fexodus.desync.com%3A6969","seeders":0,"leechers":1,"uploader":"dascuba","files":1,"time":1454131119,"description":"Mad Max: Fury Road (2015)\r\nR  |  120 min  |  Action, Adventure, Sci-Fi  |  15 May 2015 (USA)\r\n8.2 Your rating:   -/10   Ratings: 8.2/10 from 441,218 users   Metascore: 89/100\r\nReviews: 1,436 user | 702 critic | 47 from Metacritic.com\r\nA woman rebels against a tyrannical ruler in postapocalyptic Australia in search for her home-land with the help of a group of female prisoners, a psychotic worshipper, and a drifter named Max.\r\n\r\nDirector: George Miller\r\nWriters: George Miller, Brendan McCarthy, 1 more credit »\r\nStars: Tom Hardy, Charlize Theron, Nicholas Hoult\r\n\r\nGeneral\r\nComplete name                            :Mad Max Fury RoadMAD_MAX_FURY_ROAD_Title1.mp4\r\nFormat                                   : MPEG-4\r\nFormat profile                           : Base Media\r\nCodec ID                                 : isom\r\nFile size                                : 1.12 GiB\r\nDuration                                 : 2h 0mn\r\nOverall bit rate                         : 1 328 Kbps\r\nMovie name                               : MAD_MAX_FURY_ROAD\r\nGenre                                    : Action\r\nWriting application                      : Lavf54.6.100\r\n\r\nVideo\r\nID                                       : 1\r\nFormat                                   : AVC\r\nFormat/Info                              : Advanced Video Codec\r\nFormat profile                           :   \r\nFormat settings, CABAC                   : No\r\nFormat settings, ReFrames                : 6 frames\r\nCodec ID                                 : avc1\r\nCodec ID/Info                            : Advanced Video Coding\r\nDuration                                 : 2h 0mn\r\nBit rate                                 : 1 194 Kbps\r\nWidth                                    : 720 pixels\r\nHeight                                   : 404 pixels\r\nDisplay aspect ratio                     : 16:9\r\nFrame rate mode                          : Constant\r\nFrame rate                               : 29.970 fps\r\nColor space                              : YUV\r\nChroma subsampling                       : 4:2:0\r\nBit depth                                : 8 bits\r\nScan type                                : Progressive\r\nBits/(Pixel*Frame)                       : 0.137\r\nStream size                              : 1.00 GiB (90%)\r\n\r\nAudio\r\nID                                       : 2\r\nFormat                                   : AAC\r\nFormat/Info                              : Advanced Audio Codec\r\nFormat profile                           : LC\r\nCodec ID                                 : 40\r\nDuration                                 : 2h 0mn\r\nBit rate mode                            : Constant\r\nBit rate                                 : 128 Kbps\r\nChannel(s)                               : 2 channels\r\nChannel positions                        : Front: L R\r\nSampling rate                            : 44.1 KHz\r\nCompression mode                         : Lossy\r\nStream size                              : 110 MiB (10%)","torrent":{"xt":"urn:btih:6550767f90110fd463ba76368c46615089e91b3a","amp;dn":"Mad+Max%3AFury+Road%282015%29MPEG-4%5BDaScubaDude%5D","amp;tr":["udp%3A%2F%2Ftracker.leechers-paradise.org%3A6969","udp%3A%2F%2Fzer0day.ch%3A1337","udp%3A%2F%2Fopen.demonii.com%3A1337","udp%3A%2F%2Ftracker.coppersurfer.tk%3A6969","udp%3A%2F%2Fexodus.desync.com%3A6969"],"infoHash":"6550767f90110fd463ba76368c46615089e91b3a","infoHashBuffer":{"type":"Buffer","data":[101,80,118,127,144,17,15,212,99,186,118,54,140,70,97,80,137,233,27,58]},"announce":[],"urlList":[]}}